<?xml version="1.0" encoding="UTF-8" standalone="no"?>
<!-- Created with Inkscape (http://www.inkscape.org/) -->

<svg
   version="1.1"
   id="svg1"
   width="400.02667"
   height="250.48"
   viewBox="0 0 400.02667 250.48"
   xmlns="http://www.w3.org/2000/svg"
   xmlns:svg="http://www.w3.org/2000/svg">
  <defs
     id="defs1" />
  <g
     id="g1">
    <g
       id="group-R5">
      <path
         id="path2"
         d="m 93.0234,774.09 c -14.7265,4.281 -33.4492,13.09 -42.4218,23.711 -4.3672,5.16 0.6914,7.828 -6.25,11.23 -0.8321,0 -1.6602,0 -2.4922,0 -34.07034,34.707 -16.6289,64.508 -18.7188,104.824 0.8282,0 1.6602,0 2.5,0 0.4102,-0.41 0.8282,-0.82 1.2383,-1.25 10.0313,53.809 95.9881,78.477 146.0161,46.192 13.886,-8.965 31.554,-29.688 37.441,-46.192 3.547,-9.941 2.941,-19.16 7.492,-27.441 C 219.059,817.211 168.453,752.18 93.0234,774.09"
         style="fill:#f14729;fill-opacity:1;fill-rule:evenodd;stroke:none"
         transform="matrix(0.13333333,0,0,-0.13333333,0,250.48)" />
      <path
         id="path3"
         d="m 2713.75,144.832 c -64.89,33.688 -129.79,67.398 -194.69,101.098 -133.52,67.73 -288.44,117.691 -444.28,160.992 -48.59,13.5 -96.19,20.629 -144.77,32.437 -23.14,5.629 -52.79,7.403 -69.9,13.711 -19.82,7.352 -45.17,2.91 -63.63,6.25 -29.69,5.371 -69.61,3.871 -99.84,10 -16.22,0.821 -32.47,1.66 -48.68,2.5 -47.01,-0.429 -94.02,-0.84 -141.03,-1.25 -18.71,0 -37.44,0 -56.15,0 -55.75,-3.34 -111.49,-6.679 -167.23,-10 -18.3,-0.82 -36.62,-1.66 -54.91,-2.5 -57.41,-5.39 -114.83,-10.8 -172.23,-16.211 -44.92,-5.41 -89.863,-10.82 -134.785,-16.23 -29.109,-3.75 -58.25,-7.481 -87.352,-11.231 C 731.949,399.012 629.586,383.621 527.262,368.23 442.074,349.172 356.117,338.781 271.422,317.059 242.457,309.641 184.223,289.75 157.848,297.102 c -6.231,10.429 -13.028,28.609 -22.461,36.187 -22.539,18.082 -81.4847,35.211 -72.3831,74.883 39.9411,16.93 83.6601,24.59 129.7851,36.187 85.215,21.411 178.223,32.051 267.078,51.153 46.594,6.668 93.196,13.328 139.778,19.988 47.832,5.41 95.683,10.82 143.515,16.211 67.801,5.82 135.625,11.66 203.426,17.48 123.954,5.821 247.954,11.637 371.904,17.457 -45.33,1.661 -90.69,3.34 -136.03,5 -24.96,-0.41 -49.93,-0.839 -74.89,-1.25 -31.19,0 -62.4,0 -93.59,0 -27.695,-3.296 -71.574,2.071 -96.093,-1.25 -65.508,-8.828 -130.754,3.864 -190.957,-7.476 -17.461,-0.434 -34.942,-0.844 -52.403,-1.25 -54.082,-3.75 -108.164,-7.481 -162.246,-11.231 C 431.586,540.871 350.875,532.551 270.172,524.23 208.199,515.5 146.195,506.75 84.2148,498.012 70.1523,539.578 -7.55469,552.602 0.601563,619.09 33.2188,645.809 144.449,643.41 197.789,654.012 c 42.441,8.457 88.418,6.558 133.535,14.976 35.489,6.621 72.871,3.032 111.074,9.981 29.793,5.453 62.84,0.472 94.844,6.25 55.321,2.91 165.985,8.73 165.985,8.73 l 41.183,1.25 c 0,0 26.621,0 39.942,0 48.671,0.84 97.343,1.66 146.015,2.5 61.973,-0.41 123.963,-0.84 185.953,-1.25 36.6,-1.25 73.21,-2.5 109.82,-3.73 47.84,-2.09 143.52,-6.25 143.52,-6.25 0,0 147.8,-11.969 148.52,-11.25 41.58,-4.137 83.18,-8.297 124.78,-12.457 57.82,-6.66 115.67,-13.321 173.48,-19.981 33.28,-5.41 66.56,-10.82 99.84,-16.211 0.41,1.25 0.82,2.5 1.25,3.731 7,-7.832 30.38,-5.082 42.43,-7.481 42.85,-6.23 85.7,-12.48 128.55,-18.73 135.98,-25.25 282.97,-44.86 411.84,-82.36 34.25,-9.968 68.9,-15.789 101.09,-26.218 12.11,-3.922 27.03,-4.41 34.94,-12.481 12.79,-13.019 9.34,-33.859 14.98,-54.902 6.58,-24.629 24.67,-38.609 22.46,-69.899 -1.25,-0.82 -2.5,-1.64 -3.75,-2.48 -73.2,18.711 -146.44,37.441 -219.65,56.148 -79.59,21.473 -156.71,29.774 -239.6,51.172 -34.87,9.008 -71.12,12.93 -108.58,21.211 -17.05,2.91 -34.12,5.821 -51.17,8.731 0,-0.41 0,-0.821 0,-1.231 0.84,0 1.66,0 2.5,0 66.13,-19.14 132.28,-38.281 198.42,-57.422 137.48,-44.289 276.5,-88.918 404.35,-143.507 25.76,-11 51.62,-20.614 76.14,-31.192 10.87,-4.711 25.41,-6.59 31.19,-16.23 11.31,-18.871 2.18,-48.09 7.5,-71.141 3.51,-15.269 22.26,-37.148 13.73,-53.668 -1.7,-3.93 -1.12,-3.242 -5,-4.98 -10.88,-5.371 -56.66,25.449 -66.15,31.191"
         style="fill:#006838;fill-opacity:1;fill-rule:evenodd;stroke:none"
         transform="matrix(0.13333333,0,0,-0.13333333,0,250.48)" />
      <path
         id="path4"
         d="m 2400,1588.31 c 29.57,42.13 62.05,83.74 92.77,124.84 15.1,20.2 30.29,56.65 52.3,69.18 23.28,-24.57 66.88,-39.65 99.55,-53.99 57.89,-25.4 123.85,-62.89 192.35,-74.23 0,-1.7 0,-3.38 0,-5.07 -2.25,0 -4.51,0 -6.74,0 -65.25,-16.86 -130.51,-33.74 -195.74,-50.61 -62.97,-18.56 -125.98,-37.11 -188.95,-55.68 -28.75,-9.2 -58.51,-26.02 -92.81,-27 0,1.13 0,2.25 0,3.38 18.93,20.17 31.13,46.22 47.27,69.18"
         style="fill:#f14729;fill-opacity:1;fill-rule:evenodd;stroke:none"
         transform="matrix(0.13333333,0,0,-0.13333333,0,250.48)" />
      <path
         id="path5"
         d="m 2493.55,765.422 c 36.29,87.828 75.18,171.148 103.59,264.588 1.66,9.98 3.32,19.96 5,29.94 9.98,14.14 19.96,28.29 29.94,42.44 7.99,12.91 8.64,26.07 29.95,26.2 2.71,-4.25 3.75,-5.85 3.75,-13.72 -13.52,-21.24 -19.73,-47.44 -29.95,-71.14 -18.18,-42.24 -35.68,-85.207 -53.67,-129.796 -11.19,-27.754 -33.1,-66.875 -36.19,-98.594 0.82,0 1.66,0 2.5,0 22.89,24.551 45.76,49.101 68.63,73.633 40.26,51.328 88.91,96.386 134.81,142.287 14.88,14.88 55.41,65.87 76.11,68.63 6.15,-4.15 9.16,-3.81 9.98,-13.73 -45.37,-75.88 -71.03,-165.078 -99.84,-257.09 -9.34,-29.879 -28.79,-77.789 -19.96,-113.57 28.26,-18.75 40.45,4.18 56.15,19.98 27.36,27.52 47.09,64.161 67.4,98.571 7.23,12.269 14.5,41.621 27.46,47.441 1.66,0.41 3.32,0.821 4.98,1.25 2.09,-3.34 4.16,-6.66 6.23,-9.98 0.41,-27.731 -17.44,-46.012 -27.44,-64.903 -27.4,-51.777 -61.77,-99.847 -107.32,-133.539 -16.41,-12.14 -24.12,-27.609 -53.67,-27.461 -5.88,4.551 -14.55,7.602 -18.71,13.731 -13.25,19.531 -3.48,63.789 2.5,86.121 13.71,53.238 27.46,106.5 41.17,159.742 6.25,19.668 14.71,42.168 18.71,63.652 -0.41,0 -0.82,0 -1.23,0 -71.66,-72.714 -138.77,-149.886 -198.44,-234.625 -15.41,-21.921 -30.23,-44.199 -44.92,-66.16 -6.27,-9.371 -9.69,-23.379 -23.71,-24.961 -4.53,5.161 -8.36,6.371 -9.98,14.981 -2.4,5.301 6.42,22.371 8.73,28.711 9.14,25.789 18.3,51.59 27.44,77.371 m -165.98,89.859 c 20.96,0.328 30.14,12.289 42.43,21.207 29.21,21.215 90.05,84.36 96.11,124.812 -0.43,1.66 -0.84,3.33 -1.25,4.99 -22.46,18.62 -35.41,-0.38 -49.92,-14.974 -27.44,-27.578 -51.59,-56.699 -73.64,-89.863 -7.52,-11.308 -19.45,-22.246 -21.21,-38.691 2.48,-2.5 4.98,-4.981 7.48,-7.481 m -248.36,131.035 c 7.09,15.984 29.32,69.024 42.45,74.884 4.7,3.27 5.99,2.83 12.48,2.5 3.49,-4.82 7.09,-6.72 8.73,-13.73 -14.52,-16.23 -20.8,-42.38 -29.95,-63.654 -25.5,-59.336 -45.64,-124.027 -61.15,-194.687 -3.51,-15.981 -15.64,-89.449 -3.75,-96.098 6.94,-4.179 18.85,-1.64 24.96,2.5 14.87,10.078 39.59,45.489 51.18,61.16 46.32,62.707 85.78,120.016 123.53,193.434 14.1,27.383 35.51,55.825 36.21,94.845 -4.41,2.83 -6.72,3.85 -14.98,3.75 -14.84,-17.58 -34.51,-31.26 -48.67,-49.92 -6.82,-8.999 -10.1,-21.429 -24.96,-22.464 -0.41,1.238 -0.84,2.488 -1.25,3.738 -0.41,1.672 -0.84,3.332 -1.25,4.992 7.09,12.484 14.14,24.964 21.21,37.444 15,21.27 34.2,40.43 52.42,58.65 14.16,14.16 23.42,30.07 52.42,26.21 3.73,-4.57 7.48,-9.15 11.23,-13.73 7.5,-21.3 -4.16,-33.59 -9.98,-47.42 -7.91,-20.8 -15.82,-41.6 -23.73,-62.404 -5.72,-12.128 -14.69,-23.769 -16.21,-39.933 11.64,-12.078 21.1,-17.742 43.67,-16.219 30.57,45.313 71.96,91.896 117.31,122.306 18.69,12.52 50.84,28.01 66.15,1.25 12.56,-21.93 -18.11,-70.892 -27.44,-86.115 -35.78,-58.359 -98.4,-155.585 -187.21,-153.515 -12.75,-41.02 -38.42,-107.77 22.46,-119.809 19.08,-3.769 34.89,9.571 44.92,16.231 33.36,22.148 69.4,47.468 93.62,78.617 13.73,17.07 27.46,34.121 41.17,51.172 6.21,9.359 8.16,22.519 21.21,24.961 1.21,0.078 4.24,-0.492 7.5,-1.25 1.25,-2.91 2.5,-5.821 3.75,-8.731 -9.08,-20.961 -31.5,-40.511 -44.94,-58.652 -38.85,-52.539 -82.64,-110.859 -138.52,-146.02 -26.17,-16.461 -82.16,-32.648 -104.82,0 -7.62,10.942 -8.38,38.813 -5,56.153 5.08,26.179 4.14,47.758 11.23,69.886 6.82,21.313 20.29,41.383 26.21,61.153 -0.84,9.57 -1.66,19.14 -2.5,28.711 0.41,19.961 0.84,39.941 1.25,59.902 -0.41,0 -0.84,0 -1.25,0 -33.03,-51.754 -62.64,-104.434 -96.09,-154.742 -22.31,-33.543 -51.86,-62.422 -76.14,-93.602 -12.18,-15.66 -55.21,-66.172 -86.11,-51.172 -34.65,16.801 -20.08,91.024 -11.23,128.543 19.92,84.547 48.42,160.016 79.86,230.875 M 887.379,906.453 c 33.672,-11.621 65.574,15.82 84.863,28.692 55.908,37.324 85.178,94.495 107.338,165.995 5.9,19.04 13.44,38.34 13.73,62.4 -0.42,7.9 -0.83,15.8 -1.25,23.71 -2.48,12.09 -10.35,23.91 -19.98,28.7 -16.09,8.02 -38.43,-1.04 -48.67,-7.49 -24.578,-15.48 -77.359,-68.09 -91.09,-93.59 1.231,0 2.481,0 3.731,0 15,13.03 34.765,5.7 44.941,-5 3.965,-38 -26.426,-83.1 -62.402,-74.88 -2.024,5.26 -3.625,6.6 -3.75,14.98 11.621,12.4 32.383,10.58 32.449,34.94 -0.828,0 -1.668,0 -2.5,0 -1.238,0.42 -2.488,0.84 -3.738,1.25 -37.676,-31.5 -63.555,-72.64 -82.363,-122.305 -10.997,-28.984 11.054,-51.328 28.691,-57.402 M 746.363,805.359 c 47.371,138.204 102.676,272.421 157.246,403.101 16.68,39.97 35.762,125.81 87.364,127.3 2.715,-4.25 3.738,-5.85 3.738,-13.72 -11.629,-17.49 -16.043,-40.06 -24.961,-59.91 -11.426,-25.44 -27.227,-51.07 -34.949,-79.88 0.429,0 0.84,0 1.25,0 32.715,32.7 115.449,125.47 180.969,77.39 14.9,-10.94 14.83,-27.32 23.71,-44.93 3.11,-137.79 -84.72,-235.913 -153.507,-304.526 -21.543,-21.485 -91.368,-91.645 -136.035,-61.133 -14.348,9.789 -15.899,30.976 -26.211,44.922 -0.821,0 -1.661,0 -2.481,0 -23.301,-63.653 -46.601,-127.301 -69.894,-190.942 -5.789,-17.281 -16.18,-68.922 -29.95,-74.883 -3.105,-2.378 -6.484,-2.597 -12.48,-2.5 -6.113,4.403 -12.383,5.493 -13.731,14.981 -6.289,12.031 6.602,34.551 9.981,43.672 13.308,40.359 26.629,80.711 39.941,121.058 M 350.746,940.145 c 1.242,0.41 2.492,0.82 3.742,1.25 4.903,2.605 16.133,0.527 21.211,-1.25 -0.273,-51.875 -21.797,-99.254 -33.691,-143.516 -7.492,-0.43 -14.981,-0.84 -22.461,-1.25 -3.359,-3.457 -4.981,2.48 -5,7.48 6.562,10.352 6.601,24.571 8.738,36.192 5.695,30.918 19.981,67.324 27.461,101.094 m -54.91,4.988 c 3.738,0.422 7.48,0.832 11.23,1.25 1.661,-0.828 3.321,-1.668 4.989,-2.5 -7.117,-34.403 -13.614,-75.164 -23.711,-108.582 -5.301,-17.5 -0.184,-38.949 -23.719,-38.672 -0.82,0.41 -1.66,0.82 -2.48,1.25 0,2.5 0,4.98 0,7.48 8.308,32.442 16.628,64.903 24.949,97.344 3.312,14.824 1.847,31.133 8.742,42.43 M 2167.83,1601.59 c -68.62,30.02 -147.83,46.43 -232.13,63.64 -54.49,4.16 -108.99,8.32 -163.48,12.48 -24.3,4.49 -51.99,0.21 -78.63,4.99 -56.41,10.14 -141.04,7.26 -197.19,6.24 -54.61,-0.98 -122.27,8.29 -174.71,-1.24 -28.3,-0.84 -56.58,-1.67 -84.87,-2.5 -64.47,-6.66 -128.96,-13.32 -193.44,-19.97 -49.497,-8.73 -99.009,-17.47 -148.501,-26.2 -42.852,-9.57 -85.703,-19.14 -128.555,-28.71 -97.812,-30.12 -194.465,-55.23 -284.543,-93.59 -33.926,-14.46 -67.519,-31.7 -98.593,-48.68 -53.719,-29.35 -134.305,-87.34 -76.122,-162.24 20.43,-26.31 75.664,-41.84 106.075,-59.9 55.879,-33.19 113.691,-64.68 167.234,-99.85 40.969,-26.89 86.555,-49.29 113.566,-89.85 8.907,-13.37 16.153,-31.12 21.219,-47.42 13.086,-42.122 2.199,-93.606 -16.219,-122.317 -10.382,-16.153 -33.476,-27.114 -51.171,-36.172 -24.317,-12.5 -51.661,-16.762 -82.364,-24.961 -50.097,-13.399 -107.383,-26.059 -168.488,-26.211 -0.418,1.66 -0.828,3.32 -1.238,4.98 6.562,9.282 5.508,24.942 8.73,37.442 5.82,23.711 11.649,47.422 17.469,71.133 2.434,8.789 0.676,19.55 4.992,26.211 0,0.41 0,0.839 0,1.25 59.16,6.093 116.406,6.289 167.227,17.48 23.23,5.098 56.687,6.953 64.902,26.199 4.648,7.492 2.695,15.207 1.25,23.716 -29.543,20.12 -58.117,44.38 -88.613,63.64 -48.664,29.54 -97.344,59.08 -146.016,88.61 -79.805,48.62 -144.238,57.23 -174.719,158.5 -11.453,38.07 1.887,83.92 17.473,109.82 41.035,68.19 115.32,109.01 189.695,143.52 125.52,58.24 269.348,99.33 419.328,134.78 84.864,14.14 169.732,28.3 254.592,42.45 28.29,2.48 56.58,4.98 84.86,7.48 36.02,6.62 77.6,6.23 117.32,6.23 17.47,0 34.95,0 52.41,0 33.7,0.43 67.4,0.84 101.09,1.25 24.12,0 48.26,0 72.38,0 14.98,0 29.96,0 44.95,0 39.1,-1.66 78.2,-3.32 117.3,-4.98 32.85,-2.5 65.74,-5 98.59,-7.5 70.1,-13.4 142.99,-15.41 209.65,-29.95 71.27,-15.54 172.03,-30.8 204.69,-81.11 4.59,-7.09 3.46,-16.62 7.48,-24.97 -8.07,-30.73 -51.11,-24.12 -74.88,-13.72 m -768.77,-215.91 c -0.41,-2.08 -0.82,-4.15 -1.25,-6.24 -4.2,-10.3 -40.87,-56.19 -49.91,-59.9 -6.65,-0.41 -13.32,-0.84 -19.98,-1.25 -19.96,-4.16 -39.94,-8.32 -59.9,-12.48 -21.54,-6.54 -44.03,-20.01 -67.39,-21.21 -0.42,0.41 -0.83,0.83 -1.24,1.25 14.96,22.04 29.94,44.09 44.92,66.13 51.58,11.23 103.17,22.47 154.75,33.7 m 393.12,-151 c -3.32,2.91 -6.64,5.82 -9.98,8.73 -28.92,-0.34 -66.07,-27.89 -84.86,-41.19 -70.51,-49.9 -129.59,-110.79 -178.48,-182.2 -15.43,-22.551 -33.32,-42.082 -44.92,-68.645 -3.05,-6.992 -12.07,-17.91 -6.25,-29.961 1.74,-4.453 3.09,-5.703 7.5,-7.48 4.18,-2.579 5.22,-1.739 11.23,-1.25 8.13,10.918 20.88,18.613 31.19,27.461 31.62,32.441 63.24,64.905 94.87,97.345 23.35,29.86 48.65,58.22 72.38,87.36 20.21,24.81 34.98,53.66 57.4,76.12 7.15,0.07 8.89,-0.18 11.25,-4.99 4.61,-10.32 -8.59,-22.87 -12.5,-29.95 -11.68,-21.18 -32.5,-55.98 -36.19,-81.12 0.84,0 1.66,0 2.5,0 32.01,33.03 83.94,88.54 84.86,149.77 m 52.42,-164.75 c 57.41,40.18 101.25,78.93 127.31,151.02 -0.84,2.91 -1.68,5.82 -2.5,8.73 -1.68,0.84 -3.34,1.66 -5,2.5 -16.62,8.05 -33.81,-12.89 -41.19,-19.97 -30.78,-29.49 -58.52,-63.56 -81.12,-101.09 -6.46,-10.74 -27.65,-41.52 2.5,-41.19 m -512.93,3.75 c 4.58,0 9.15,0 13.74,0 10.39,7.91 20.8,15.81 31.19,23.71 28.36,21.72 51.78,47.56 71.13,78.63 8.16,13.08 19.77,28.27 21.21,47.43 -2.46,4.72 -1.7,8.4 -6.23,11.23 -19.9,9.39 -34.61,-15.28 -43.67,-22.47 -31.79,-25.17 -56.06,-60.42 -77.38,-96.1 -6.7,-11.18 -15.55,-20.16 -16.24,-37.43 2.52,-2.42 2.51,-3.37 6.25,-5 m 979.69,511.68 c -32.2,-54.19 -54.61,-112.82 -83.63,-169.73 -64.88,-127.2 -119.73,-263.49 -175.96,-399.35 -14.98,-42.436 -29.96,-84.885 -44.94,-127.307 -3.73,-14.551 -7.48,-29.121 -11.23,-43.672 -29.94,-72.711 -47.52,-152.711 -74.88,-230.903 -30.33,-86.679 -54.98,-180.558 -81.12,-270.796 -16.64,-66.973 -33.28,-133.961 -49.92,-200.942 -7.71,-32.379 -10.35,-69.3514 -23.71,-97.3202 -0.84,0 -1.66,0 -2.5,0 -11.48,16.0704 -42.15,52.0118 -47.42,69.8792 -3.61,12.312 11.78,52.031 14.98,63.633 16.02,57.929 28.79,115.707 46.17,170.98 12.48,46.168 24.96,92.359 37.44,138.539 29.5,93.301 57.27,189.219 92.37,279.551 29.12,78.609 58.24,157.262 87.34,235.878 -0.41,0 -0.84,0 -1.23,0 -36.39,-36.546 -68.61,-76.839 -107.34,-111.077 -15.77,-13.946 -29.14,-30.825 -49.93,-39.942 -30.03,-13.199 -79.21,-8.691 -92.34,16.231 -12.58,23.886 -7.56,68.965 0,93.593 1.66,8.321 3.32,16.641 5,24.961 11.13,33.304 31.25,56.794 21.21,98.594 -3.55,14.77 2.62,26.82 -1.25,39.94 -1.25,-0.42 -2.5,-0.84 -3.75,-1.25 -4.55,-11.12 -51.72,-61.03 -62.38,-69.89 -6.68,-5.54 -15.04,-10.36 -18.73,-18.72 -16.35,-37.092 -25.8,-74.162 -41.19,-112.326 -18.6,-46.094 -41.33,-93.652 -61.16,-138.516 -14.92,-33.769 -27.32,-65.918 -47.42,-93.617 -16.46,-22.672 -56.81,-72.07 -102.32,-62.383 -14.75,3.133 -31.22,13.051 -38.69,23.711 -15.81,22.52 -39.46,90.2 -36.19,124.789 2.16,22.993 -8.26,73.551 17.47,76.133 2.03,-2.851 2.42,-2.051 3.74,-6.23 4.18,-9.18 0.39,-43.141 3.75,-57.422 9,-38.238 31.44,-84.688 66.13,-97.348 44.75,-16.281 64.65,34.16 79.88,57.43 39.22,59.82 66.74,127.609 93.6,200.914 11.32,30.898 31.01,66.215 33.69,102.345 -1.25,0 -2.5,0 -3.75,0 -10.32,-16.95 -26.1,-29.65 -37.42,-44.93 -22.5,-30.345 -45.79,-56.946 -68.66,-86.126 -9.98,-9.551 -19.96,-19.121 -29.94,-28.691 -12.07,-12.071 -24.12,-24.141 -36.19,-36.192 -21.87,-15.922 -67.86,-11.949 -63.65,24.961 2.4,21.074 12.46,36.641 17.47,54.903 -0.83,0 -1.66,0 -2.49,0 -21.51,-27.618 -82.27,-73.594 -118.57,-86.114 -34.36,-11.84 -66.62,6.5 -76.13,28.711 -17.7,41.367 16.79,107.403 22.47,141.028 -0.41,0 -0.84,0 -1.25,0 -30.71,-51.614 -68.27,-105.657 -109.82,-147.258 -18.17,-18.203 -33.36,-35.043 -68.64,-26.211 -19.35,28.48 8.29,87.539 18.72,113.554 32.95,82.165 72.08,161.395 116.07,233.375 15.53,25.43 24.57,72.47 63.63,73.64 5.21,-4.9 7.56,-5.39 7.5,-16.23 -57.3,-73.79 -106.85,-163.08 -144.76,-254.593 -8.33,-23.281 -16.65,-46.594 -24.96,-69.883 -2.81,-9.609 -1.88,-19.883 4.98,-23.711 2.5,-0.41 5,-0.84 7.49,-1.25 7.49,4.981 14.98,9.981 22.47,14.981 26.39,20.546 47.93,54.968 67.38,82.366 10.76,15.15 17.52,36.52 39.94,39.94 1.66,-3.33 3.33,-6.66 4.99,-9.98 4.16,8.73 8.32,17.46 12.48,26.2 -0.83,8.32 -1.67,16.64 -2.49,24.96 -4.67,26.42 0.39,60.56 4.98,81.12 0.84,0 1.67,0 2.5,0 11.01,-11.17 25.67,-17.99 47.43,-14.98 33.2,49.21 73.52,87.44 118.56,124.81 16.83,13.96 51.61,21.61 64.89,0 16.43,-26.72 -14.02,-65.9 -24.96,-83.62 -33.5,-54.31 -69.69,-101 -121.05,-137.28 -8.32,-6.24 -16.64,-12.48 -24.96,-18.73 -11.47,-4.77 -27.09,-3.37 -41.19,-2.48 -27.05,-41.947 -28.02,-145.647 48.68,-116.076 11.23,7.91 22.47,15.82 33.7,23.711 36.81,26.816 70,56.25 97.34,92.365 10.16,13.4 22.01,47.03 39.92,51.16 2.93,-2.49 5.84,-4.99 8.75,-7.49 59.34,76.72 127.83,157.13 222.15,198.44 32.52,14.24 99.34,32.42 91.09,-32.46 -2.34,-18.52 -39.43,-72.89 -51.17,-86.11 0.43,-0.83 0.84,-1.66 1.25,-2.5 7.39,-7.37 24.81,-11 38.69,-11.22 26.23,51.9 73.68,101.1 121.06,132.29 17.58,11.56 54,28.61 66.15,0 16.09,-22.89 -15.98,-75.41 -24.96,-92.37 -27.23,-51.34 -87.17,-132.49 -143.52,-152.24 -15.27,-5.35 -32.03,-4.18 -49.92,-3.75 -6.01,-10.26 -5.37,-21.79 -8.75,-36.194 -12.77,-54.746 1.53,-99.375 63.65,-73.632 51.25,21.23 110.18,89.476 141.04,133.536 7.89,13.32 15.8,26.63 23.71,39.94 4.98,2.91 9.96,5.82 14.96,8.73 28.71,70.29 57.42,140.63 86.13,210.92 58.34,134.06 121,269.95 194.69,390.62 26.27,43.05 51.41,85.14 78.62,126.05 8.53,12.84 16.15,36.38 28.71,44.93 11.31,7.7 33.86,10.02 51.15,9.98 0.43,-0.83 0.84,-1.66 1.25,-2.5 -7.89,-28.38 -39.67,-65.98 -53.65,-92.34 -35.45,-66.79 -69.01,-133.94 -107.33,-198.44 m 400.61,91.1 c -41.68,16.52 -83.03,29.29 -119.83,51.17 -12.14,7.24 -24.66,19.2 -38.67,23.71 -38.53,-40.84 -69.55,-91.02 -102.34,-137.27 -14.34,-20.21 -37.91,-41.48 -46.17,-66.15 2.91,0 5.82,0 8.73,0 22.87,6.66 45.76,13.32 68.63,19.97 63.83,20.38 131.07,38.49 197.21,58.66 24.88,7.58 79.25,12.55 97.32,24.95 0.41,0.83 0.84,1.67 1.25,2.5 -22.93,1.99 -46.76,14.78 -66.13,22.46 M 2999,1626.55 c -44.73,-4.82 -95.12,7.95 -141.04,-2.5 -48.67,-9.98 -97.34,-19.97 -145.99,-29.96 -92.44,-24.49 -183.85,-52.77 -268.34,-84.86 -44.42,-16.87 -88.19,-31.96 -129.79,-51.17 -5.9,-2.72 -40.56,-17.49 -42.42,-16.22 -0.41,0 -0.84,0 -1.25,0 9.98,21.54 26.78,39.86 39.94,58.66 30.86,44.1 61.17,88.01 92.35,131.03 40.37,55.76 81.52,110.26 122.3,164.75 17.13,22.88 32.48,48.47 52.42,68.63 0.82,0 1.66,0 2.48,0 0.43,-0.41 0.84,-0.82 1.25,-1.25 2.6,-23.91 3.75,-49.65 8.73,-71.13 17.97,-10.78 35.24,-23.99 53.68,-34.94 39.23,-23.32 89.66,-38.06 136.03,-52.43 37.44,-7.89 74.88,-15.8 112.32,-23.71 16.65,-1.25 33.29,-2.49 49.93,-3.74 22.61,-8.6 39.66,-33.58 58.65,-47.42 -0.41,-1.25 -0.84,-2.5 -1.25,-3.74"
         style="fill:#231f20;fill-opacity:1;fill-rule:evenodd;stroke:none"
         transform="matrix(0.13333333,0,0,-0.13333333,0,250.48)" />
      <path
         id="path6"
         d="m 45.5039,915.848 c 0,-2.09 0,-4.16 0,-6.25 0.5156,0 1.0352,0 1.5625,0 0.5156,0.527 1.0352,1.054 1.5508,1.562 0,1.563 0,3.125 0,4.688 -1.0352,0 -2.0781,0 -3.1133,0"
         style="fill:#231f20;fill-opacity:1;fill-rule:evenodd;stroke:none"
         transform="matrix(0.13333333,0,0,-0.13333333,0,250.48)" />
      <path
         id="path7"
         d="m 64.3711,905.848 c 1.043,2.09 2.0898,4.179 3.125,6.25 -1.0352,0 -2.082,0 -3.125,0 -0.5078,-2.071 -1.0352,-4.16 -1.5547,-6.25 0.5195,0 1.0469,0 1.5547,0"
         style="fill:#231f20;fill-opacity:1;fill-rule:evenodd;stroke:none"
         transform="matrix(0.13333333,0,0,-0.13333333,0,250.48)" />
      <path
         id="path8"
         d="m 107.438,890.105 c -1.563,0.508 -3.125,1.036 -4.688,1.563 0,-0.527 0,-1.055 0,-1.563 1.563,0 3.125,0 4.688,0"
         style="fill:#231f20;fill-opacity:1;fill-rule:evenodd;stroke:none"
         transform="matrix(0.13333333,0,0,-0.13333333,0,250.48)" />
      <path
         id="path9"
         d="m 89.1758,888.543 c -1.5547,1.562 -3.1172,3.125 -4.668,4.668 -1.5625,-0.508 -3.125,-1.035 -4.6875,-1.543 0,-0.527 0,-1.055 0,-1.563 5.0586,-0.761 7.3828,-2.734 9.3555,-1.562"
         style="fill:#231f20;fill-opacity:1;fill-rule:evenodd;stroke:none"
         transform="matrix(0.13333333,0,0,-0.13333333,0,250.48)" />
      <path
         id="path10"
         d="m 67.4961,892.137 c -1.5625,0.508 -3.125,1.035 -4.6797,1.543 0,-1.543 0,-3.106 0,-4.668 1.0469,-1.563 2.082,-3.125 3.1172,-4.688 0.5273,2.617 1.0352,5.196 1.5625,7.813"
         style="fill:#231f20;fill-opacity:1;fill-rule:evenodd;stroke:none"
         transform="matrix(0.13333333,0,0,-0.13333333,0,250.48)" />
      <path
         id="path11"
         d="m 45.9727,884.48 c 0,1.036 0,2.071 0,3.125 0.5156,1.563 1.0351,3.125 1.5625,4.688 -3.4961,-0.039 -1.25,1.367 -3.125,-1.563 -0.5274,-2.089 -1.0352,-4.179 -1.5625,-6.25 1.0351,0 2.0781,0 3.125,0"
         style="fill:#231f20;fill-opacity:1;fill-rule:evenodd;stroke:none"
         transform="matrix(0.13333333,0,0,-0.13333333,0,250.48)" />
      <path
         id="path12"
         d="m 43.0039,864.52 c 0.5274,0 1.0352,0 1.5625,0 0.5156,2.601 1.0352,5.191 1.5625,7.789 -2.793,-2.95 -2.2851,-2.11 -3.125,-7.789"
         style="fill:#231f20;fill-opacity:1;fill-rule:evenodd;stroke:none"
         transform="matrix(0.13333333,0,0,-0.13333333,0,250.48)" />
      <path
         id="path13"
         d="m 64.3711,866.082 c 0.5273,0 1.043,0 1.5625,0 0.5273,1.559 1.0352,3.129 1.5625,4.668 -4.8242,1.031 -2.6563,2.949 -4.6797,-1.539 0.5195,-1.063 1.0469,-2.09 1.5547,-3.129"
         style="fill:#231f20;fill-opacity:1;fill-rule:evenodd;stroke:none"
         transform="matrix(0.13333333,0,0,-0.13333333,0,250.48)" />
      <path
         id="path14"
         d="m 108.844,867.332 c 0,1.039 0,2.066 0,3.129 -2.09,0.5 -4.16,1.027 -6.25,1.539 0,-1.039 0,-2.07 0,-3.109 1.043,-0.52 2.09,-1.051 3.125,-1.559 1.035,0 2.078,0 3.125,0"
         style="fill:#231f20;fill-opacity:1;fill-rule:evenodd;stroke:none"
         transform="matrix(0.13333333,0,0,-0.13333333,0,250.48)" />
      <path
         id="path15"
         d="m 87.6211,868.09 c -2.3242,1.699 -1.5703,1.601 -4.6758,3.129 0,-0.508 0,-1.039 0,-1.539 -0.5273,-2.09 -1.0469,-4.18 -1.5625,-6.25 1.5625,-0.508 3.125,-1.059 4.6758,-1.571 0.5195,2.09 1.0469,4.161 1.5625,6.231"
         style="fill:#231f20;fill-opacity:1;fill-rule:evenodd;stroke:none"
         transform="matrix(0.13333333,0,0,-0.13333333,0,250.48)" />
      <path
         id="path16"
         d="m 44.2539,844.398 c 0.5156,0 1.0352,0 1.5625,0 0.5156,3.114 1.0352,6.231 1.5625,9.34 -4.2383,-0.687 -2.9297,-1.097 -3.125,-9.34"
         style="fill:#231f20;fill-opacity:1;fill-rule:evenodd;stroke:none"
         transform="matrix(0.13333333,0,0,-0.13333333,0,250.48)" />
      <path
         id="path17"
         d="m 144.723,851.73 c -1.047,0 -2.09,0 -3.125,0 0,-0.531 0,-1.039 0,-1.57 1.035,0.531 2.078,1.039 3.125,1.57"
         style="fill:#231f20;fill-opacity:1;fill-rule:evenodd;stroke:none"
         transform="matrix(0.13333333,0,0,-0.13333333,0,250.48)" />
      <path
         id="path18"
         d="m 87.1523,844.691 c 0,2.09 0,4.161 0,6.25 -6.0429,-0.152 -3.5039,-0.089 -1.5625,-6.25 0.5196,0 1.0469,0 1.5625,0"
         style="fill:#231f20;fill-opacity:1;fill-rule:evenodd;stroke:none"
         transform="matrix(0.13333333,0,0,-0.13333333,0,250.48)" />
      <path
         id="path19"
         d="m 65.9336,846.43 c 0.5273,1.55 1.0352,3.109 1.5625,4.672 -3.8086,0.957 -3.2031,4.429 -4.6797,0 -0.0078,-2.364 -0.9258,-4.981 3.1172,-7.793 0,1.031 0,2.07 0,3.121"
         style="fill:#231f20;fill-opacity:1;fill-rule:evenodd;stroke:none"
         transform="matrix(0.13333333,0,0,-0.13333333,0,250.48)" />
      <path
         id="path20"
         d="m 67.4961,826.301 c 0,1.558 0,3.121 0,4.66 -1.5156,0.41 -8.2813,1.82 -4.6797,-1.539 1.5156,-3.531 0.8516,-2.461 3.1172,-4.692 0.5273,0.532 1.0352,1.04 1.5625,1.571"
         style="fill:#231f20;fill-opacity:1;fill-rule:evenodd;stroke:none"
         transform="matrix(0.13333333,0,0,-0.13333333,0,250.48)" />
      <path
         id="path21"
         d="m 110.406,824.73 c 0,1.571 0,3.129 0,4.692 -2.609,0.527 -5.207,1.039 -7.812,1.539 -0.52,-0.5 -1.035,-1.012 -1.563,-1.539 1.043,-0.531 2.09,-1.031 3.125,-1.563 2.078,-1.039 4.16,-2.089 6.25,-3.129"
         style="fill:#231f20;fill-opacity:1;fill-rule:evenodd;stroke:none"
         transform="matrix(0.13333333,0,0,-0.13333333,0,250.48)" />
      <path
         id="path22"
         d="m 81.2266,830.648 c 0.5156,-0.507 1.0351,-1.007 1.5625,-1.539 2.0781,-1.039 4.1601,-2.089 6.2304,-3.129 0,1.04 0,2.09 0,3.129 -2.0703,1.032 -4.1523,2.071 -6.2304,3.102 -0.5274,-0.5 -1.0469,-1.031 -1.5625,-1.563"
         style="fill:#231f20;fill-opacity:1;fill-rule:evenodd;stroke:none"
         transform="matrix(0.13333333,0,0,-0.13333333,0,250.48)" />
      <path
         id="path23"
         d="m 121.168,826.301 c 1.035,-0.531 2.07,-1.039 3.105,-1.571 2.344,2.211 2.762,1.622 4.688,4.692 -2.09,0.527 -4.16,1.039 -6.242,1.539 -1.18,-2.691 -4.141,-2.852 -1.551,-4.66"
         style="fill:#231f20;fill-opacity:1;fill-rule:evenodd;stroke:none"
         transform="matrix(0.13333333,0,0,-0.13333333,0,250.48)" />
      <path
         id="path24"
         d="m 184.801,829.422 c -5,-1.742 -1.965,0.449 -4.668,-3.121 3.535,1.5 2.449,0.859 4.668,3.121"
         style="fill:#231f20;fill-opacity:1;fill-rule:evenodd;stroke:none"
         transform="matrix(0.13333333,0,0,-0.13333333,0,250.48)" />
      <path
         id="path25"
         d="m 164.84,824.891 c 0.515,1.558 1.035,3.121 1.562,4.691 -2.089,0 -4.16,0 -6.242,0 -0.527,-0.531 -1.043,-1.043 -1.562,-1.57 0,-1.032 0,-2.082 0,-3.121 2.082,0 4.172,0 6.242,0"
         style="fill:#231f20;fill-opacity:1;fill-rule:evenodd;stroke:none"
         transform="matrix(0.13333333,0,0,-0.13333333,0,250.48)" />
      <path
         id="path26"
         d="m 143.316,823.48 c 1.036,2.09 2.079,4.161 3.125,6.25 -1.562,0 -3.125,0 -4.687,0 -1.035,-2.089 -2.09,-4.16 -3.125,-6.25 1.562,0 3.125,0 4.687,0"
         style="fill:#231f20;fill-opacity:1;fill-rule:evenodd;stroke:none"
         transform="matrix(0.13333333,0,0,-0.13333333,0,250.48)" />
      <path
         id="path27"
         d="m 50.4844,829.262 c -3.1446,3.027 -3.1172,4.199 -7.793,6.238 0,-0.512 0,-1.039 0,-1.57 -0.5078,-3.098 -1.0351,-6.231 -1.5625,-9.348 2.0899,-1.043 4.1602,-2.094 6.25,-3.113 1.0352,2.582 2.0703,5.203 3.1055,7.793"
         style="fill:#231f20;fill-opacity:1;fill-rule:evenodd;stroke:none"
         transform="matrix(0.13333333,0,0,-0.13333333,0,250.48)" />
      <path
         id="path28"
         d="m 112.418,799.461 c 0.527,0.527 1.043,1.039 1.562,1.559 0,1.57 0,3.128 0,4.671 -2.082,1.059 -4.152,2.09 -6.23,3.129 0,-0.511 0,-1.039 0,-1.57 -0.527,0 -1.047,0 -1.562,0 0,-1.031 0,-2.07 0,-3.102 2.078,-1.558 4.16,-3.128 6.23,-4.687"
         style="fill:#231f20;fill-opacity:1;fill-rule:evenodd;stroke:none"
         transform="matrix(0.13333333,0,0,-0.13333333,0,250.48)" />
      <path
         id="path29"
         d="m 93.5508,803.68 c 0,1.539 0,3.121 0,4.672 -4.1016,-1.332 -1.7383,1.089 -3.125,-3.133 0.5273,-0.508 1.0351,-1.008 1.5625,-1.539 0.5273,0 1.0351,0 1.5625,0"
         style="fill:#231f20;fill-opacity:1;fill-rule:evenodd;stroke:none"
         transform="matrix(0.13333333,0,0,-0.13333333,0,250.48)" />
      <path
         id="path30"
         d="m 69.0586,808.191 c 1.0352,-1.031 2.0781,-2.07 3.125,-3.101 0.5156,1.031 1.0352,2.07 1.543,3.101 -3.8086,0.981 -3.1953,4.45 -4.668,0"
         style="fill:#231f20;fill-opacity:1;fill-rule:evenodd;stroke:none"
         transform="matrix(0.13333333,0,0,-0.13333333,0,250.48)" />
      <path
         id="path31"
         d="m 183.258,806.18 c 0,0.511 0,1.031 0,1.539 0.508,1.062 1.035,2.09 1.543,3.133 -1.035,0 -2.071,0 -3.106,0 -0.527,-1.571 -1.047,-3.133 -1.562,-4.672 1.035,0 2.078,0 3.125,0"
         style="fill:#231f20;fill-opacity:1;fill-rule:evenodd;stroke:none"
         transform="matrix(0.13333333,0,0,-0.13333333,0,250.48)" />
      <path
         id="path32"
         d="m 168.266,803.52 c 0,0.531 0,1.039 0,1.57 0.519,1.031 1.047,2.07 1.562,3.101 -1.562,0.528 -3.113,1.059 -4.676,1.559 0,-2.07 0,-4.16 0,-6.23 1.043,0 2.09,0 3.114,0"
         style="fill:#231f20;fill-opacity:1;fill-rule:evenodd;stroke:none"
         transform="matrix(0.13333333,0,0,-0.13333333,0,250.48)" />
      <path
         id="path33"
         d="m 152.672,808.352 c -2.07,0.519 -4.16,1.046 -6.231,1.558 -0.527,-0.512 -1.046,-1.039 -1.562,-1.558 0,-1.043 0,-2.071 0,-3.133 3.262,-1.699 2.957,-2.028 7.793,-3.098 0,2.09 0,4.16 0,6.231"
         style="fill:#231f20;fill-opacity:1;fill-rule:evenodd;stroke:none"
         transform="matrix(0.13333333,0,0,-0.13333333,0,250.48)" />
      <path
         id="path34"
         d="m 134.418,805.691 c -1.563,1.559 -3.113,3.129 -4.676,4.688 -1.035,-0.508 -2.09,-1.039 -3.125,-1.559 -1.554,-1.57 -3.117,-3.129 -4.679,-4.672 0.519,-1.558 1.046,-3.128 1.562,-4.687 2.598,-0.531 5.207,-1.031 7.805,-1.539 1.699,3.258 2.031,2.949 3.113,7.769"
         style="fill:#231f20;fill-opacity:1;fill-rule:evenodd;stroke:none"
         transform="matrix(0.13333333,0,0,-0.13333333,0,250.48)" />
      <path
         id="path35"
         d="m 97.75,782.941 c 0.5273,0 1.0547,0 1.5625,0 1.0425,0 2.0895,0 3.1255,0 -3.8091,0.95 -3.2036,4.43 -4.688,0"
         style="fill:#231f20;fill-opacity:1;fill-rule:evenodd;stroke:none"
         transform="matrix(0.13333333,0,0,-0.13333333,0,250.48)" />
      <path
         id="path36"
         d="m 113.512,781.219 c 1.035,0 2.078,0 3.125,0 2.07,0 4.16,0 6.25,0 -3.867,3.301 -2.324,3.531 -9.375,4.672 0,-1.571 0,-3.129 0,-4.672"
         style="fill:#231f20;fill-opacity:1;fill-rule:evenodd;stroke:none"
         transform="matrix(0.13333333,0,0,-0.13333333,0,250.48)" />
      <path
         id="path37"
         d="m 142.379,781.371 c 0,1.57 0,3.109 0,4.668 -1.563,-0.508 -3.125,-1.027 -4.688,-1.559 0.528,-1.039 1.043,-2.07 1.563,-3.109 0.516,-0.519 1.035,-1.031 1.562,-1.562 0.528,0.531 1.043,1.043 1.563,1.562"
         style="fill:#231f20;fill-opacity:1;fill-rule:evenodd;stroke:none"
         transform="matrix(0.13333333,0,0,-0.13333333,0,250.48)" />
      <path
         id="path38"
         d="M 13.792411,-7.1262128 H 7.9681922 v 2.8007812 h 1.875 c -0.2109375,0.9023438 -1.3125,1.5 -2.1796875,1.5 -2.1328125,0 -2.71875,-1.6757812 -2.71875,-3.515625 0,-2.2851562 0.796875,-3.7968754 2.4726562,-3.7968754 1.1015625,0 1.875,0.5742192 2.1796875,1.6406254 h 4.0312496 c -0.527343,-3.1875004 -3.023437,-4.8046874 -6.1406246,-4.8046874 -4.1953125,0 -6.78515621,2.847656 -6.78515621,6.9843749 0,4.5117188 2.96484371,6.65625004 6.28125001,6.65625004 2.0390625,0 3.1992188,-0.75 3.9023438,-1.58203124 l 0.164062,1.27734374 h 2.742188 z m 7.236328,-0.058594 c 0.972656,-0.046875 1.582031,0.9960938 1.582031,2.3789063 0,1.78125 -0.609375,2.5546875 -1.628906,2.5546875 -0.949219,0 -1.617187,-0.7734375 -1.617187,-2.5546875 0,-1.0664063 0.386718,-2.3789063 1.664062,-2.3789063 z m -5.402344,2.578125 c 0,3.2226563 2.332032,4.87500004 5.355469,4.87500004 3.035156,0 5.367188,-1.61718754 5.367188,-5.07421874 0,-2.9296875 -2.050782,-4.8984375 -5.378907,-4.8984375 -3.1875,0 -5.34375,1.8164062 -5.34375,5.0976562 z m 16.236328,4.60546879 V -12.96215 h -3.75 v 12.96093719 z m 6.275391,-9.43359379 c -0.08203,-1.5117182 0.339844,-1.5117182 1.570313,-1.5117182 v -2.355469 h -1.605469 c -2.390625,0 -3.691406,0.539062 -3.691406,3.8671872 h -1.253907 v 2.15625 h 1.242188 v 7.27734379 h 3.738281 V -7.2785566 h 1.570313 v -2.15625 z M 51.11663,-5.8371505 C 50.847098,-8.626213 48.468192,-9.704338 45.948661,-9.704338 c -3.105469,0 -5.378906,1.8515625 -5.378906,5.0742187 0,3.1875 2.34375,4.89843754 5.378906,4.89843754 2.613281,0 4.921875,-1.06640625 5.238281,-3.92578124 h -3.773437 c -0.105469,0.7382812 -0.492188,1.40625 -1.464844,1.40625 -1.089844,0 -1.628906,-0.9375 -1.628906,-2.3554688 0,-1.1132812 0.234375,-2.578125 1.628906,-2.578125 0.421875,0 0.738281,0.1289063 0.972656,0.375 0.234375,0.234375 0.386719,0.5625 0.398438,0.9726563 z m 5.748047,5.83593749 V -12.96215 h -3.75 V -0.00121281 Z M 69.11663,-9.4348066 h -3.738282 v 4.5351563 c 0,1.4648437 -0.339843,2.2734375 -1.429687,2.2734375 -0.890625,0 -1.347656,-0.421875 -1.347656,-1.7109375 v -5.0976563 h -3.738282 v 5.7421875 c 0,2.70703129 1.324219,3.96093754 3.375,3.96093754 1.558594,0 2.472657,-0.36328125 3.410157,-1.65234374 v 1.38281249 h 3.46875 z m 5.490234,-3.5273434 h -3.738281 v 12.96093719 h 3.363281 V -1.3371503 h 0.03516 c 0.46875,0.90234374 1.335938,1.60546874 2.894532,1.60546874 3.082031,0 4.265625,-2.25000004 4.265625,-5.03906254 0,-2.8476562 -1.6875,-4.9335937 -4.101563,-4.9335937 -1.113281,0 -1.980469,0.3632812 -2.71875,1.2304687 z m 1.5,10.5351559 c -1.230469,0 -1.582031,-1.2773437 -1.582031,-2.2851562 0,-0.9726563 0.445312,-2.0976563 1.582031,-2.0976563 1.207031,0 1.582031,1.1601563 1.582031,2.1679688 0,1.0195312 -0.363281,2.2148437 -1.582031,2.2148437 z m 25.687496,-4.6992187 h -5.824215 v 2.8007812 h 1.875 c -0.210937,0.9023438 -1.3125,1.5 -2.179687,1.5 -2.132813,0 -2.71875,-1.6757812 -2.71875,-3.515625 0,-2.2851562 0.796875,-3.7968754 2.472656,-3.7968754 1.101563,0 1.875,0.5742192 2.179688,1.6406254 h 4.031248 c -0.52734,-3.1875004 -3.023436,-4.8046874 -6.140623,-4.8046874 -4.195313,0 -6.785157,2.847656 -6.785157,6.9843749 0,4.5117188 2.964844,6.65625004 6.28125,6.65625004 2.039063,0 3.199219,-0.75 3.902344,-1.58203124 l 0.164063,1.27734374 h 2.742183 z m 5.50196,1.3476562 c 0,-1.0078125 0.63281,-1.640625 1.74609,-1.640625 0.87891,0 1.65234,0.7734375 1.65234,1.640625 z m 7.14843,1.9101563 c 0.0586,-3.421875 -2.05078,-5.8359375 -5.54296,-5.8359375 -3.02344,0 -5.34375,1.9804687 -5.34375,5.0742187 0,3.1757813 2.33203,4.89843754 5.35546,4.89843754 2.20313,0 4.57032,-0.7734375 5.22657,-3.11718754 h -3.58594 c -0.26953,0.5625 -0.80859,0.8320313 -1.40625,0.8320313 -0.98438,0 -1.85156,-0.7382813 -1.85156,-1.8515625 z m 1.42383,3.86718749 h 3.73828 V -4.8059003 c 0,-1.2070313 0.30469,-1.9453125 1.46485,-1.9453125 1.05469,0 1.3125,0.8320312 1.3125,1.7695312 v 4.98046879 h 3.73828 V -5.6496503 c 0,-2.5898438 -1.17188,-4.0546875 -3.65625,-4.0546875 -1.41797,0 -2.33203,0.609375 -3.17578,1.7460937 v -1.4765625 h -3.42188 z m 16.54102,-3.35156249 2.01562,3.35156249 h 4.5 l -3.94922,-5.77734379 3.49219,-3.65625 h -4.37109 l -2.39063,2.8828125 V -12.96215 h -3.75 v 12.96093719 h 3.75 V -2.6496503 Z m 0,0"
         style="fill:#231f20;fill-opacity:1;fill-rule:nonzero;stroke:none"
         aria-label="Golfclub Genk "
         transform="matrix(1.3333333,0,0,1.3333333,28.8484,244.91177)" />
    </g>
  </g>
</svg>
