<?xml version="1.0" encoding="UTF-8"?>
<!-- Created with Inkscape (http://www.inkscape.org/) -->
<svg width="400.03" height="250.48" version="1.1" viewBox="0 0 400.03 250.48" xmlns="http://www.w3.org/2000/svg">
 <g fill-rule="evenodd">
  <path transform="matrix(.13333 0 0 -.13333 0 250.48)" d="m93.023 774.09c-14.726 4.281-33.449 13.09-42.422 23.711-4.3672 5.16 0.6914 7.828-6.25 11.23h-2.4922c-34.07 34.707-16.629 64.508-18.719 104.82h2.5c0.4102-0.41 0.8282-0.82 1.2383-1.25 10.031 53.809 95.988 78.477 146.02 46.192 13.886-8.965 31.554-29.688 37.441-46.192 3.547-9.941 2.941-19.16 7.492-27.441 1.231-67.953-49.375-132.98-124.8-111.07" fill="#f14729"/>
  <path transform="matrix(.13333 0 0 -.13333 0 250.48)" d="m2713.8 144.83c-64.89 33.688-129.79 67.398-194.69 101.1-133.52 67.73-288.44 117.69-444.28 160.99-48.59 13.5-96.19 20.629-144.77 32.437-23.14 5.629-52.79 7.403-69.9 13.711-19.82 7.352-45.17 2.91-63.63 6.25-29.69 5.371-69.61 3.871-99.84 10-16.22 0.821-32.47 1.66-48.68 2.5-47.01-0.429-94.02-0.84-141.03-1.25h-56.15c-55.75-3.34-111.49-6.679-167.23-10-18.3-0.82-36.62-1.66-54.91-2.5-57.41-5.39-114.83-10.8-172.23-16.211-44.92-5.41-89.863-10.82-134.78-16.23-29.109-3.75-58.25-7.481-87.352-11.231-102.32-15.386-204.69-30.777-307.01-46.168-85.188-19.058-171.14-29.449-255.84-51.171-28.965-7.418-87.199-27.309-113.57-19.957-6.231 10.429-13.028 28.609-22.461 36.187-22.539 18.082-81.485 35.211-72.383 74.883 39.941 16.93 83.66 24.59 129.79 36.187 85.215 21.411 178.22 32.051 267.08 51.153 46.594 6.668 93.196 13.328 139.78 19.988 47.832 5.41 95.683 10.82 143.52 16.211 67.801 5.82 135.62 11.66 203.43 17.48 123.95 5.821 247.95 11.637 371.9 17.457-45.33 1.661-90.69 3.34-136.03 5-24.96-0.41-49.93-0.839-74.89-1.25h-93.59c-27.695-3.296-71.574 2.071-96.093-1.25-65.508-8.828-130.75 3.864-190.96-7.476-17.461-0.434-34.942-0.844-52.403-1.25-54.082-3.75-108.16-7.481-162.25-11.231-80.695-8.32-161.41-16.64-242.11-24.961-61.973-8.73-123.98-17.48-185.96-26.218-14.062 41.566-91.769 54.59-83.613 121.08 32.617 26.719 143.85 24.32 197.19 34.922 42.441 8.457 88.418 6.558 133.54 14.976 35.489 6.621 72.871 3.032 111.07 9.981 29.793 5.453 62.84 0.472 94.844 6.25 55.321 2.91 165.98 8.73 165.98 8.73l41.183 1.25h39.942c48.671 0.84 97.343 1.66 146.02 2.5 61.973-0.41 123.96-0.84 185.95-1.25 36.6-1.25 73.21-2.5 109.82-3.73 47.84-2.09 143.52-6.25 143.52-6.25s147.8-11.969 148.52-11.25c41.58-4.137 83.18-8.297 124.78-12.457 57.82-6.66 115.67-13.321 173.48-19.981 33.28-5.41 66.56-10.82 99.84-16.211 0.41 1.25 0.82 2.5 1.25 3.731 7-7.832 30.38-5.082 42.43-7.481 42.85-6.23 85.7-12.48 128.55-18.73 135.98-25.25 282.97-44.86 411.84-82.36 34.25-9.968 68.9-15.789 101.09-26.218 12.11-3.922 27.03-4.41 34.94-12.481 12.79-13.019 9.34-33.859 14.98-54.902 6.58-24.629 24.67-38.609 22.46-69.899-1.25-0.82-2.5-1.64-3.75-2.48-73.2 18.711-146.44 37.441-219.65 56.148-79.59 21.473-156.71 29.774-239.6 51.172-34.87 9.008-71.12 12.93-108.58 21.211-17.05 2.91-34.12 5.821-51.17 8.731v-1.231h2.5c66.13-19.14 132.28-38.281 198.42-57.422 137.48-44.289 276.5-88.918 404.35-143.51 25.76-11 51.62-20.614 76.14-31.192 10.87-4.711 25.41-6.59 31.19-16.23 11.31-18.871 2.18-48.09 7.5-71.141 3.51-15.269 22.26-37.148 13.73-53.668-1.7-3.93-1.12-3.242-5-4.98-10.88-5.371-56.66 25.449-66.15 31.191" fill="#006838"/>
  <path transform="matrix(.13333 0 0 -.13333 0 250.48)" d="m2400 1588.3c29.57 42.13 62.05 83.74 92.77 124.84 15.1 20.2 30.29 56.65 52.3 69.18 23.28-24.57 66.88-39.65 99.55-53.99 57.89-25.4 123.85-62.89 192.35-74.23v-5.07h-6.74c-65.25-16.86-130.51-33.74-195.74-50.61-62.97-18.56-125.98-37.11-188.95-55.68-28.75-9.2-58.51-26.02-92.81-27v3.38c18.93 20.17 31.13 46.22 47.27 69.18" fill="#f14729"/>
  <g fill="#231f20">
   <path transform="matrix(.13333 0 0 -.13333 0 250.48)" d="m2493.6 765.42c36.29 87.828 75.18 171.15 103.59 264.59 1.66 9.98 3.32 19.96 5 29.94 9.98 14.14 19.96 28.29 29.94 42.44 7.99 12.91 8.64 26.07 29.95 26.2 2.71-4.25 3.75-5.85 3.75-13.72-13.52-21.24-19.73-47.44-29.95-71.14-18.18-42.24-35.68-85.207-53.67-129.8-11.19-27.754-33.1-66.875-36.19-98.594h2.5c22.89 24.551 45.76 49.101 68.63 73.633 40.26 51.328 88.91 96.386 134.81 142.29 14.88 14.88 55.41 65.87 76.11 68.63 6.15-4.15 9.16-3.81 9.98-13.73-45.37-75.88-71.03-165.08-99.84-257.09-9.34-29.879-28.79-77.789-19.96-113.57 28.26-18.75 40.45 4.18 56.15 19.98 27.36 27.52 47.09 64.161 67.4 98.571 7.23 12.269 14.5 41.621 27.46 47.441 1.66 0.41 3.32 0.821 4.98 1.25 2.09-3.34 4.16-6.66 6.23-9.98 0.41-27.731-17.44-46.012-27.44-64.903-27.4-51.777-61.77-99.847-107.32-133.54-16.41-12.14-24.12-27.609-53.67-27.461-5.88 4.551-14.55 7.602-18.71 13.731-13.25 19.531-3.48 63.789 2.5 86.121 13.71 53.238 27.46 106.5 41.17 159.74 6.25 19.668 14.71 42.168 18.71 63.652h-1.23c-71.66-72.714-138.77-149.89-198.44-234.62-15.41-21.921-30.23-44.199-44.92-66.16-6.27-9.371-9.69-23.379-23.71-24.961-4.53 5.161-8.36 6.371-9.98 14.981-2.4 5.301 6.42 22.371 8.73 28.711 9.14 25.789 18.3 51.59 27.44 77.371m-165.98 89.859c20.96 0.328 30.14 12.289 42.43 21.207 29.21 21.215 90.05 84.36 96.11 124.81-0.43 1.66-0.84 3.33-1.25 4.99-22.46 18.62-35.41-0.38-49.92-14.974-27.44-27.578-51.59-56.699-73.64-89.863-7.52-11.308-19.45-22.246-21.21-38.691 2.48-2.5 4.98-4.981 7.48-7.481m-248.36 131.04c7.09 15.984 29.32 69.024 42.45 74.884 4.7 3.27 5.99 2.83 12.48 2.5 3.49-4.82 7.09-6.72 8.73-13.73-14.52-16.23-20.8-42.38-29.95-63.654-25.5-59.336-45.64-124.03-61.15-194.69-3.51-15.981-15.64-89.449-3.75-96.098 6.94-4.179 18.85-1.64 24.96 2.5 14.87 10.078 39.59 45.489 51.18 61.16 46.32 62.707 85.78 120.02 123.53 193.43 14.1 27.383 35.51 55.825 36.21 94.845-4.41 2.83-6.72 3.85-14.98 3.75-14.84-17.58-34.51-31.26-48.67-49.92-6.82-8.999-10.1-21.429-24.96-22.464-0.41 1.238-0.84 2.488-1.25 3.738-0.41 1.672-0.84 3.332-1.25 4.992 7.09 12.484 14.14 24.964 21.21 37.444 15 21.27 34.2 40.43 52.42 58.65 14.16 14.16 23.42 30.07 52.42 26.21 3.73-4.57 7.48-9.15 11.23-13.73 7.5-21.3-4.16-33.59-9.98-47.42-7.91-20.8-15.82-41.6-23.73-62.404-5.72-12.128-14.69-23.769-16.21-39.933 11.64-12.078 21.1-17.742 43.67-16.219 30.57 45.313 71.96 91.896 117.31 122.31 18.69 12.52 50.84 28.01 66.15 1.25 12.56-21.93-18.11-70.892-27.44-86.115-35.78-58.359-98.4-155.58-187.21-153.52-12.75-41.02-38.42-107.77 22.46-119.81 19.08-3.769 34.89 9.571 44.92 16.231 33.36 22.148 69.4 47.468 93.62 78.617 13.73 17.07 27.46 34.121 41.17 51.172 6.21 9.359 8.16 22.519 21.21 24.961 1.21 0.078 4.24-0.492 7.5-1.25 1.25-2.91 2.5-5.821 3.75-8.731-9.08-20.961-31.5-40.511-44.94-58.652-38.85-52.539-82.64-110.86-138.52-146.02-26.17-16.461-82.16-32.648-104.82 0-7.62 10.942-8.38 38.813-5 56.153 5.08 26.179 4.14 47.758 11.23 69.886 6.82 21.313 20.29 41.383 26.21 61.153-0.84 9.57-1.66 19.14-2.5 28.711 0.41 19.961 0.84 39.941 1.25 59.902h-1.25c-33.03-51.754-62.64-104.43-96.09-154.74-22.31-33.543-51.86-62.422-76.14-93.602-12.18-15.66-55.21-66.172-86.11-51.172-34.65 16.801-20.08 91.024-11.23 128.54 19.92 84.547 48.42 160.02 79.86 230.88m-1191.8-79.863c33.672-11.621 65.574 15.82 84.863 28.692 55.908 37.324 85.178 94.495 107.34 166 5.9 19.04 13.44 38.34 13.73 62.4-0.42 7.9-0.83 15.8-1.25 23.71-2.48 12.09-10.35 23.91-19.98 28.7-16.09 8.02-38.43-1.04-48.67-7.49-24.578-15.48-77.359-68.09-91.09-93.59h3.731c15 13.03 34.765 5.7 44.941-5 3.965-38-26.426-83.1-62.402-74.88-2.024 5.26-3.625 6.6-3.75 14.98 11.621 12.4 32.383 10.58 32.449 34.94h-2.5c-1.238 0.42-2.488 0.84-3.738 1.25-37.676-31.5-63.555-72.64-82.363-122.3-10.997-28.984 11.054-51.328 28.691-57.402m-141.02-101.09c47.371 138.2 102.68 272.42 157.25 403.1 16.68 39.97 35.762 125.81 87.364 127.3 2.715-4.25 3.738-5.85 3.738-13.72-11.629-17.49-16.043-40.06-24.961-59.91-11.426-25.44-27.227-51.07-34.949-79.88h1.25c32.715 32.7 115.45 125.47 180.97 77.39 14.9-10.94 14.83-27.32 23.71-44.93 3.11-137.79-84.72-235.91-153.51-304.53-21.543-21.485-91.368-91.645-136.04-61.133-14.348 9.789-15.899 30.976-26.211 44.922h-2.481c-23.301-63.653-46.601-127.3-69.894-190.94-5.789-17.281-16.18-68.922-29.95-74.883-3.105-2.378-6.484-2.597-12.48-2.5-6.113 4.403-12.383 5.493-13.731 14.981-6.289 12.031 6.602 34.551 9.981 43.672 13.308 40.359 26.629 80.711 39.941 121.06m-395.62 134.79c1.242 0.41 2.492 0.82 3.742 1.25 4.903 2.605 16.133 0.527 21.211-1.25-0.273-51.875-21.797-99.254-33.691-143.52-7.492-0.43-14.981-0.84-22.461-1.25-3.359-3.457-4.981 2.48-5 7.48 6.562 10.352 6.601 24.571 8.738 36.192 5.695 30.918 19.981 67.324 27.461 101.09m-54.91 4.988c3.738 0.422 7.48 0.832 11.23 1.25 1.661-0.828 3.321-1.668 4.989-2.5-7.117-34.403-13.614-75.164-23.711-108.58-5.301-17.5-0.184-38.949-23.719-38.672-0.82 0.41-1.66 0.82-2.48 1.25v7.48c8.308 32.442 16.628 64.903 24.949 97.344 3.312 14.824 1.847 31.133 8.742 42.43m1872 656.46c-68.62 30.02-147.83 46.43-232.13 63.64-54.49 4.16-108.99 8.32-163.48 12.48-24.3 4.49-51.99 0.21-78.63 4.99-56.41 10.14-141.04 7.26-197.19 6.24-54.61-0.98-122.27 8.29-174.71-1.24-28.3-0.84-56.58-1.67-84.87-2.5-64.47-6.66-128.96-13.32-193.44-19.97-49.497-8.73-99.009-17.47-148.5-26.2-42.852-9.57-85.703-19.14-128.56-28.71-97.812-30.12-194.46-55.23-284.54-93.59-33.926-14.46-67.519-31.7-98.593-48.68-53.719-29.35-134.3-87.34-76.122-162.24 20.43-26.31 75.664-41.84 106.08-59.9 55.879-33.19 113.69-64.68 167.23-99.85 40.969-26.89 86.555-49.29 113.57-89.85 8.907-13.37 16.153-31.12 21.219-47.42 13.086-42.122 2.199-93.606-16.219-122.32-10.382-16.153-33.476-27.114-51.171-36.172-24.317-12.5-51.661-16.762-82.364-24.961-50.097-13.399-107.38-26.059-168.49-26.211-0.418 1.66-0.828 3.32-1.238 4.98 6.562 9.282 5.508 24.942 8.73 37.442 5.82 23.711 11.649 47.422 17.469 71.133 2.434 8.789 0.676 19.55 4.992 26.211v1.25c59.16 6.093 116.41 6.289 167.23 17.48 23.23 5.098 56.687 6.953 64.902 26.199 4.648 7.492 2.695 15.207 1.25 23.716-29.543 20.12-58.117 44.38-88.613 63.64-48.664 29.54-97.344 59.08-146.02 88.61-79.805 48.62-144.24 57.23-174.72 158.5-11.453 38.07 1.887 83.92 17.473 109.82 41.035 68.19 115.32 109.01 189.7 143.52 125.52 58.24 269.35 99.33 419.33 134.78 84.864 14.14 169.73 28.3 254.59 42.45 28.29 2.48 56.58 4.98 84.86 7.48 36.02 6.62 77.6 6.23 117.32 6.23h52.41c33.7 0.43 67.4 0.84 101.09 1.25h72.38 44.95l117.3-4.98c32.85-2.5 65.74-5 98.59-7.5 70.1-13.4 142.99-15.41 209.65-29.95 71.27-15.54 172.03-30.8 204.69-81.11 4.59-7.09 3.46-16.62 7.48-24.97-8.07-30.73-51.11-24.12-74.88-13.72m-768.77-215.91c-0.41-2.08-0.82-4.15-1.25-6.24-4.2-10.3-40.87-56.19-49.91-59.9-6.65-0.41-13.32-0.84-19.98-1.25-19.96-4.16-39.94-8.32-59.9-12.48-21.54-6.54-44.03-20.01-67.39-21.21-0.42 0.41-0.83 0.83-1.24 1.25 14.96 22.04 29.94 44.09 44.92 66.13 51.58 11.23 103.17 22.47 154.75 33.7m393.12-151c-3.32 2.91-6.64 5.82-9.98 8.73-28.92-0.34-66.07-27.89-84.86-41.19-70.51-49.9-129.59-110.79-178.48-182.2-15.43-22.551-33.32-42.082-44.92-68.645-3.05-6.992-12.07-17.91-6.25-29.961 1.74-4.453 3.09-5.703 7.5-7.48 4.18-2.579 5.22-1.739 11.23-1.25 8.13 10.918 20.88 18.613 31.19 27.461 31.62 32.441 63.24 64.905 94.87 97.345 23.35 29.86 48.65 58.22 72.38 87.36 20.21 24.81 34.98 53.66 57.4 76.12 7.15 0.07 8.89-0.18 11.25-4.99 4.61-10.32-8.59-22.87-12.5-29.95-11.68-21.18-32.5-55.98-36.19-81.12h2.5c32.01 33.03 83.94 88.54 84.86 149.77m52.42-164.75c57.41 40.18 101.25 78.93 127.31 151.02-0.84 2.91-1.68 5.82-2.5 8.73-1.68 0.84-3.34 1.66-5 2.5-16.62 8.05-33.81-12.89-41.19-19.97-30.78-29.49-58.52-63.56-81.12-101.09-6.46-10.74-27.65-41.52 2.5-41.19m-512.93 3.75h13.74c10.39 7.91 20.8 15.81 31.19 23.71 28.36 21.72 51.78 47.56 71.13 78.63 8.16 13.08 19.77 28.27 21.21 47.43-2.46 4.72-1.7 8.4-6.23 11.23-19.9 9.39-34.61-15.28-43.67-22.47-31.79-25.17-56.06-60.42-77.38-96.1-6.7-11.18-15.55-20.16-16.24-37.43 2.52-2.42 2.51-3.37 6.25-5m979.69 511.68c-32.2-54.19-54.61-112.82-83.63-169.73-64.88-127.2-119.73-263.49-175.96-399.35-14.98-42.436-29.96-84.885-44.94-127.31-3.73-14.551-7.48-29.121-11.23-43.672-29.94-72.711-47.52-152.71-74.88-230.9-30.33-86.679-54.98-180.56-81.12-270.8-16.64-66.973-33.28-133.96-49.92-200.94-7.71-32.379-10.35-69.351-23.71-97.32h-2.5c-11.48 16.07-42.15 52.012-47.42 69.879-3.61 12.312 11.78 52.031 14.98 63.633 16.02 57.929 28.79 115.71 46.17 170.98 12.48 46.168 24.96 92.359 37.44 138.54 29.5 93.301 57.27 189.22 92.37 279.55 29.12 78.609 58.24 157.26 87.34 235.88h-1.23c-36.39-36.546-68.61-76.839-107.34-111.08-15.77-13.946-29.14-30.825-49.93-39.942-30.03-13.199-79.21-8.691-92.34 16.231-12.58 23.886-7.56 68.965 0 93.593 1.66 8.321 3.32 16.641 5 24.961 11.13 33.304 31.25 56.794 21.21 98.594-3.55 14.77 2.62 26.82-1.25 39.94-1.25-0.42-2.5-0.84-3.75-1.25-4.55-11.12-51.72-61.03-62.38-69.89-6.68-5.54-15.04-10.36-18.73-18.72-16.35-37.092-25.8-74.162-41.19-112.33-18.6-46.094-41.33-93.652-61.16-138.52-14.92-33.769-27.32-65.918-47.42-93.617-16.46-22.672-56.81-72.07-102.32-62.383-14.75 3.133-31.22 13.051-38.69 23.711-15.81 22.52-39.46 90.2-36.19 124.79 2.16 22.993-8.26 73.551 17.47 76.133 2.03-2.851 2.42-2.051 3.74-6.23 4.18-9.18 0.39-43.141 3.75-57.422 9-38.238 31.44-84.688 66.13-97.348 44.75-16.281 64.65 34.16 79.88 57.43 39.22 59.82 66.74 127.61 93.6 200.91 11.32 30.898 31.01 66.215 33.69 102.34h-3.75c-10.32-16.95-26.1-29.65-37.42-44.93-22.5-30.345-45.79-56.946-68.66-86.126-9.98-9.551-19.96-19.121-29.94-28.691-12.07-12.071-24.12-24.141-36.19-36.192-21.87-15.922-67.86-11.949-63.65 24.961 2.4 21.074 12.46 36.641 17.47 54.903h-2.49c-21.51-27.618-82.27-73.594-118.57-86.114-34.36-11.84-66.62 6.5-76.13 28.711-17.7 41.367 16.79 107.4 22.47 141.03h-1.25c-30.71-51.614-68.27-105.66-109.82-147.26-18.17-18.203-33.36-35.043-68.64-26.211-19.35 28.48 8.29 87.539 18.72 113.55 32.95 82.165 72.08 161.4 116.07 233.38 15.53 25.43 24.57 72.47 63.63 73.64 5.21-4.9 7.56-5.39 7.5-16.23-57.3-73.79-106.85-163.08-144.76-254.59-8.33-23.281-16.65-46.594-24.96-69.883-2.81-9.609-1.88-19.883 4.98-23.711 2.5-0.41 5-0.84 7.49-1.25 7.49 4.981 14.98 9.981 22.47 14.981 26.39 20.546 47.93 54.968 67.38 82.366 10.76 15.15 17.52 36.52 39.94 39.94 1.66-3.33 3.33-6.66 4.99-9.98 4.16 8.73 8.32 17.46 12.48 26.2-0.83 8.32-1.67 16.64-2.49 24.96-4.67 26.42 0.39 60.56 4.98 81.12h2.5c11.01-11.17 25.67-17.99 47.43-14.98 33.2 49.21 73.52 87.44 118.56 124.81 16.83 13.96 51.61 21.61 64.89 0 16.43-26.72-14.02-65.9-24.96-83.62-33.5-54.31-69.69-101-121.05-137.28-8.32-6.24-16.64-12.48-24.96-18.73-11.47-4.77-27.09-3.37-41.19-2.48-27.05-41.947-28.02-145.65 48.68-116.08 11.23 7.91 22.47 15.82 33.7 23.711 36.81 26.816 70 56.25 97.34 92.365 10.16 13.4 22.01 47.03 39.92 51.16 2.93-2.49 5.84-4.99 8.75-7.49 59.34 76.72 127.83 157.13 222.15 198.44 32.52 14.24 99.34 32.42 91.09-32.46-2.34-18.52-39.43-72.89-51.17-86.11 0.43-0.83 0.84-1.66 1.25-2.5 7.39-7.37 24.81-11 38.69-11.22 26.23 51.9 73.68 101.1 121.06 132.29 17.58 11.56 54 28.61 66.15 0 16.09-22.89-15.98-75.41-24.96-92.37-27.23-51.34-87.17-132.49-143.52-152.24-15.27-5.35-32.03-4.18-49.92-3.75-6.01-10.26-5.37-21.79-8.75-36.194-12.77-54.746 1.53-99.375 63.65-73.632 51.25 21.23 110.18 89.476 141.04 133.54 7.89 13.32 15.8 26.63 23.71 39.94 4.98 2.91 9.96 5.82 14.96 8.73 28.71 70.29 57.42 140.63 86.13 210.92 58.34 134.06 121 269.95 194.69 390.62 26.27 43.05 51.41 85.14 78.62 126.05 8.53 12.84 16.15 36.38 28.71 44.93 11.31 7.7 33.86 10.02 51.15 9.98 0.43-0.83 0.84-1.66 1.25-2.5-7.89-28.38-39.67-65.98-53.65-92.34-35.45-66.79-69.01-133.94-107.33-198.44m400.61 91.1c-41.68 16.52-83.03 29.29-119.83 51.17-12.14 7.24-24.66 19.2-38.67 23.71-38.53-40.84-69.55-91.02-102.34-137.27-14.34-20.21-37.91-41.48-46.17-66.15h8.73c22.87 6.66 45.76 13.32 68.63 19.97 63.83 20.38 131.07 38.49 197.21 58.66 24.88 7.58 79.25 12.55 97.32 24.95 0.41 0.83 0.84 1.67 1.25 2.5-22.93 1.99-46.76 14.78-66.13 22.46m287.03-49.91c-44.73-4.82-95.12 7.95-141.04-2.5-48.67-9.98-97.34-19.97-145.99-29.96-92.44-24.49-183.85-52.77-268.34-84.86-44.42-16.87-88.19-31.96-129.79-51.17-5.9-2.72-40.56-17.49-42.42-16.22h-1.25c9.98 21.54 26.78 39.86 39.94 58.66 30.86 44.1 61.17 88.01 92.35 131.03 40.37 55.76 81.52 110.26 122.3 164.75 17.13 22.88 32.48 48.47 52.42 68.63h2.48c0.43-0.41 0.84-0.82 1.25-1.25 2.6-23.91 3.75-49.65 8.73-71.13 17.97-10.78 35.24-23.99 53.68-34.94 39.23-23.32 89.66-38.06 136.03-52.43 37.44-7.89 74.88-15.8 112.32-23.71 16.65-1.25 33.29-2.49 49.93-3.74 22.61-8.6 39.66-33.58 58.65-47.42-0.41-1.25-0.84-2.5-1.25-3.74"/>
   <path transform="matrix(.13333 0 0 -.13333 0 250.48)" d="m45.504 915.85v-6.25h1.5625c0.5156 0.527 1.0352 1.054 1.5508 1.562v4.688h-3.1133"/>
   <path transform="matrix(.13333 0 0 -.13333 0 250.48)" d="m64.371 905.85c1.043 2.09 2.0898 4.179 3.125 6.25h-3.125c-0.5078-2.071-1.0352-4.16-1.5547-6.25h1.5547"/>
   <path transform="matrix(.13333 0 0 -.13333 0 250.48)" d="m107.44 890.1c-1.563 0.508-3.125 1.036-4.688 1.563v-1.563h4.688"/>
   <path transform="matrix(.13333 0 0 -.13333 0 250.48)" d="m89.176 888.54c-1.5547 1.562-3.1172 3.125-4.668 4.668-1.5625-0.508-3.125-1.035-4.6875-1.543v-1.563c5.0586-0.761 7.3828-2.734 9.3555-1.562"/>
   <path transform="matrix(.13333 0 0 -.13333 0 250.48)" d="m67.496 892.14c-1.5625 0.508-3.125 1.035-4.6797 1.543v-4.668c1.0469-1.563 2.082-3.125 3.1172-4.688 0.5273 2.617 1.0352 5.196 1.5625 7.813"/>
   <path transform="matrix(.13333 0 0 -.13333 0 250.48)" d="m45.973 884.48v3.125c0.5156 1.563 1.0351 3.125 1.5625 4.688-3.4961-0.039-1.25 1.367-3.125-1.563-0.5274-2.089-1.0352-4.179-1.5625-6.25h3.125"/>
   <path transform="matrix(.13333 0 0 -.13333 0 250.48)" d="m43.004 864.52h1.5625c0.5156 2.601 1.0352 5.191 1.5625 7.789-2.793-2.95-2.2851-2.11-3.125-7.789"/>
   <path transform="matrix(.13333 0 0 -.13333 0 250.48)" d="m64.371 866.08h1.5625c0.5273 1.559 1.0352 3.129 1.5625 4.668-4.8242 1.031-2.6563 2.949-4.6797-1.539 0.5195-1.063 1.0469-2.09 1.5547-3.129"/>
   <path transform="matrix(.13333 0 0 -.13333 0 250.48)" d="m108.84 867.33v3.129c-2.09 0.5-4.16 1.027-6.25 1.539v-3.109c1.043-0.52 2.09-1.051 3.125-1.559h3.125"/>
   <path transform="matrix(.13333 0 0 -.13333 0 250.48)" d="m87.621 868.09c-2.3242 1.699-1.5703 1.601-4.6758 3.129v-1.539c-0.5273-2.09-1.0469-4.18-1.5625-6.25 1.5625-0.508 3.125-1.059 4.6758-1.571 0.5195 2.09 1.0469 4.161 1.5625 6.231"/>
   <path transform="matrix(.13333 0 0 -.13333 0 250.48)" d="m44.254 844.4h1.5625c0.5156 3.114 1.0352 6.231 1.5625 9.34-4.2383-0.687-2.9297-1.097-3.125-9.34"/>
   <path transform="matrix(.13333 0 0 -.13333 0 250.48)" d="m144.72 851.73h-3.125v-1.57c1.035 0.531 2.078 1.039 3.125 1.57"/>
   <path transform="matrix(.13333 0 0 -.13333 0 250.48)" d="m87.152 844.69v6.25c-6.0429-0.152-3.5039-0.089-1.5625-6.25h1.5625"/>
   <path transform="matrix(.13333 0 0 -.13333 0 250.48)" d="m65.934 846.43c0.5273 1.55 1.0352 3.109 1.5625 4.672-3.8086 0.957-3.2031 4.429-4.6797 0-0.0078-2.364-0.9258-4.981 3.1172-7.793v3.121"/>
   <path transform="matrix(.13333 0 0 -.13333 0 250.48)" d="m67.496 826.3v4.66c-1.5156 0.41-8.2813 1.82-4.6797-1.539 1.5156-3.531 0.8516-2.461 3.1172-4.692 0.5273 0.532 1.0352 1.04 1.5625 1.571"/>
   <path transform="matrix(.13333 0 0 -.13333 0 250.48)" d="m110.41 824.73v4.692c-2.609 0.527-5.207 1.039-7.812 1.539-0.52-0.5-1.035-1.012-1.563-1.539 1.043-0.531 2.09-1.031 3.125-1.563 2.078-1.039 4.16-2.089 6.25-3.129"/>
   <path transform="matrix(.13333 0 0 -.13333 0 250.48)" d="m81.227 830.65c0.5156-0.507 1.0351-1.007 1.5625-1.539 2.0781-1.039 4.1601-2.089 6.2304-3.129v3.129c-2.0703 1.032-4.1523 2.071-6.2304 3.102-0.5274-0.5-1.0469-1.031-1.5625-1.563"/>
   <path transform="matrix(.13333 0 0 -.13333 0 250.48)" d="m121.17 826.3c1.035-0.531 2.07-1.039 3.105-1.571 2.344 2.211 2.762 1.622 4.688 4.692-2.09 0.527-4.16 1.039-6.242 1.539-1.18-2.691-4.141-2.852-1.551-4.66"/>
   <path transform="matrix(.13333 0 0 -.13333 0 250.48)" d="m184.8 829.42c-5-1.742-1.965 0.449-4.668-3.121 3.535 1.5 2.449 0.859 4.668 3.121"/>
   <path transform="matrix(.13333 0 0 -.13333 0 250.48)" d="m164.84 824.89c0.515 1.558 1.035 3.121 1.562 4.691h-6.242c-0.527-0.531-1.043-1.043-1.562-1.57v-3.121h6.242"/>
   <path transform="matrix(.13333 0 0 -.13333 0 250.48)" d="m143.32 823.48c1.036 2.09 2.079 4.161 3.125 6.25h-4.687c-1.035-2.089-2.09-4.16-3.125-6.25h4.687"/>
   <path transform="matrix(.13333 0 0 -.13333 0 250.48)" d="m50.484 829.26c-3.1446 3.027-3.1172 4.199-7.793 6.238v-1.57c-0.5078-3.098-1.0351-6.231-1.5625-9.348 2.0899-1.043 4.1602-2.094 6.25-3.113 1.0352 2.582 2.0703 5.203 3.1055 7.793"/>
   <path transform="matrix(.13333 0 0 -.13333 0 250.48)" d="m112.42 799.46c0.527 0.527 1.043 1.039 1.562 1.559v4.671c-2.082 1.059-4.152 2.09-6.23 3.129v-1.57h-1.562v-3.102c2.078-1.558 4.16-3.128 6.23-4.687"/>
   <path transform="matrix(.13333 0 0 -.13333 0 250.48)" d="m93.551 803.68v4.672c-4.1016-1.332-1.7383 1.089-3.125-3.133 0.5273-0.508 1.0351-1.008 1.5625-1.539h1.5625"/>
   <path transform="matrix(.13333 0 0 -.13333 0 250.48)" d="m69.059 808.19c1.0352-1.031 2.0781-2.07 3.125-3.101 0.5156 1.031 1.0352 2.07 1.543 3.101-3.8086 0.981-3.1953 4.45-4.668 0"/>
   <path transform="matrix(.13333 0 0 -.13333 0 250.48)" d="m183.26 806.18v1.539c0.508 1.062 1.035 2.09 1.543 3.133h-3.106c-0.527-1.571-1.047-3.133-1.562-4.672h3.125"/>
   <path transform="matrix(.13333 0 0 -.13333 0 250.48)" d="m168.27 803.52v1.57c0.519 1.031 1.047 2.07 1.562 3.101-1.562 0.528-3.113 1.059-4.676 1.559v-6.23h3.114"/>
   <path transform="matrix(.13333 0 0 -.13333 0 250.48)" d="m152.67 808.35c-2.07 0.519-4.16 1.046-6.231 1.558-0.527-0.512-1.046-1.039-1.562-1.558v-3.133c3.262-1.699 2.957-2.028 7.793-3.098v6.231"/>
   <path transform="matrix(.13333 0 0 -.13333 0 250.48)" d="m134.42 805.69c-1.563 1.559-3.113 3.129-4.676 4.688-1.035-0.508-2.09-1.039-3.125-1.559-1.554-1.57-3.117-3.129-4.679-4.672 0.519-1.558 1.046-3.128 1.562-4.687 2.598-0.531 5.207-1.031 7.805-1.539 1.699 3.258 2.031 2.949 3.113 7.769"/>
   <path transform="matrix(.13333 0 0 -.13333 0 250.48)" d="m97.75 782.94h1.5625 3.1255c-3.8091 0.95-3.2036 4.43-4.688 0"/>
   <path transform="matrix(.13333 0 0 -.13333 0 250.48)" d="m113.51 781.22h3.125 6.25c-3.867 3.301-2.324 3.531-9.375 4.672v-4.672"/>
   <path transform="matrix(.13333 0 0 -.13333 0 250.48)" d="m142.38 781.37v4.668c-1.563-0.508-3.125-1.027-4.688-1.559 0.528-1.039 1.043-2.07 1.563-3.109 0.516-0.519 1.035-1.031 1.562-1.562 0.528 0.531 1.043 1.043 1.563 1.562"/>
  </g>
 </g>
</svg>
